<?xml version="1.0" encoding="UTF-8" standalone="no"?>
<svg width="100" height="100" viewBox="0 0 100 100" fill="none" xmlns="http://www.w3.org/2000/svg">
  <path d="M49.5 20C37.5 20 36 25 36 30V40H50V42H26C21 42 16 45 16 55C16 65 21 70 26 70H36V60C36 54 41 50 47 50H63C68 50 72 46 72 41V30C72 25 67 20 49.5 20ZM42 28C43.7 28 45 29.3 45 31C45 32.7 43.7 34 42 34C40.3 34 39 32.7 39 31C39 29.3 40.3 28 42 28Z" fill="#3776AB"/>
  <path d="M50.5 80C62.5 80 64 75 64 70V60H50V58H74C79 58 84 55 84 45C84 35 79 30 74 30H64V40C64 46 59 50 53 50H37C32 50 28 54 28 59V70C28 75 33 80 50.5 80ZM58 72C56.3 72 55 70.7 55 69C55 67.3 56.3 66 58 66C59.7 66 61 67.3 61 69C61 70.7 59.7 72 58 72Z" fill="#3776AB"/>
</svg>
